<?xml version="1.0" encoding="UTF-8" standalone="no"?>
<!-- Generator: Adobe Illustrator 17.0.0, SVG Export Plug-In . SVG Version: 6.00 Build 0)  -->

<svg
   xmlns:dc="http://purl.org/dc/elements/1.1/"
   xmlns:cc="http://creativecommons.org/ns#"
   xmlns:rdf="http://www.w3.org/1999/02/22-rdf-syntax-ns#"
   xmlns:svg="http://www.w3.org/2000/svg"
   xmlns="http://www.w3.org/2000/svg"
   xmlns:sodipodi="http://sodipodi.sourceforge.net/DTD/sodipodi-0.dtd"
   xmlns:inkscape="http://www.inkscape.org/namespaces/inkscape"
   version="1.1"
   id="Warstwa_1"
   x="0px"
   y="0px"
   width="56.279999"
   height="56.279999"
   viewBox="62.174 269.427 56.279999 56.280001"
   enable-background="new 62.174 269.427 295.181 56.427"
   xml:space="preserve"
   sodipodi:docname="bitcan-white.svg"
   inkscape:version="0.92.4 5da689c313, 2019-01-14"><metadata
   id="metadata25"><rdf:RDF><cc:Work
       rdf:about=""><dc:format>image/svg+xml</dc:format><dc:type
         rdf:resource="http://purl.org/dc/dcmitype/StillImage" /><dc:title>Artboard 1 copy</dc:title></cc:Work></rdf:RDF></metadata><defs
   id="defs23" /><sodipodi:namedview
   pagecolor="#ffffff"
   bordercolor="#666666"
   borderopacity="1"
   objecttolerance="10"
   gridtolerance="10"
   guidetolerance="10"
   inkscape:pageopacity="0"
   inkscape:pageshadow="2"
   inkscape:window-width="1920"
   inkscape:window-height="1016"
   id="namedview21"
   showgrid="true"
   inkscape:zoom="1.2941212"
   inkscape:cx="135.99962"
   inkscape:cy="28.212501"
   inkscape:window-x="0"
   inkscape:window-y="27"
   inkscape:window-maximized="1"
   inkscape:current-layer="Warstwa_1"
   fit-margin-top="0"
   fit-margin-left="0"
   fit-margin-right="0"
   fit-margin-bottom="0"><inkscape:grid
     type="xygrid"
     id="grid4543"
     originx="7.1054274e-15"
     originy="-0.00099813847" /></sodipodi:namedview>
<title
   id="title2">Artboard 1 copy</title>
<path
   d="m 90.314,269.427 c -15.541,0 -28.14,12.599 -28.14,28.14 0,15.541 12.599,28.14 28.14,28.14 15.541,0 28.14,-12.599 28.14,-28.14 0,-15.541 -12.598,-28.14 -28.14,-28.14 z m -17.2,15.555 h 2.402 c 3.138,-0.013 6.168,1.146 8.495,3.251 0.415,0.349 0.649,0.869 0.634,1.412 -0.026,0.984 -0.845,1.761 -1.83,1.735 -0.443,0.005 -0.871,-0.16 -1.196,-0.461 -1.675,-1.507 -3.851,-2.337 -6.104,-2.328 h -2.402 v -0.042 c -0.985,0 -1.783,-0.798 -1.783,-1.783 0.001,-0.986 0.799,-1.784 1.784,-1.784 z m 35.995,25.287 -9.439,7.143 c -0.299,0.235 -0.668,0.364 -1.049,0.367 -0.493,-0.027 -0.952,-0.257 -1.269,-0.635 -0.633,-0.755 -0.534,-1.879 0.22,-2.512 l 5.244,-3.944 h -4.94 c -3.044,-0.008 -5.998,-1.034 -8.391,-2.916 -0.773,-0.611 -0.905,-1.733 -0.294,-2.507 0.611,-0.773 1.733,-0.905 2.507,-0.294 1.765,1.403 3.955,2.161 6.209,2.15 h 5.024 l -5.244,-3.944 c -0.143,-0.078 -0.275,-0.175 -0.392,-0.289 -0.705,-0.688 -0.719,-1.816 -0.032,-2.521 0.688,-0.705 1.816,-0.719 2.521,-0.032 l 9.439,7.143 c 0.384,0.352 0.598,0.853 0.587,1.374 0.001,0.556 -0.259,1.08 -0.701,1.417 z m 0.116,-22.078 -9.439,7.027 c -0.301,0.23 -0.67,0.355 -1.049,0.357 -0.564,-0.002 -1.095,-0.265 -1.437,-0.713 0,-0.001 -10e-4,-0.001 -10e-4,-0.002 -0.587,-0.791 -0.422,-1.907 0.368,-2.495 l 5.055,-3.776 h -4.814 c -5.345,-0.047 -9.726,4.231 -9.807,9.576 v 0.252 c 0,0.015 0,0.029 -0.001,0.044 -0.099,6.852 -5.734,12.326 -12.585,12.227 h -2.402 c -0.985,0 -1.783,-0.798 -1.783,-1.783 0,-0.985 0.798,-1.783 1.783,-1.783 h 2.454 c 4.873,0.064 8.877,-3.832 8.946,-8.705 v -0.252 c 0.086,-7.329 6.086,-13.206 13.414,-13.142 h 4.929 l -5.171,-3.87 c -0.123,-0.07 -0.237,-0.153 -0.34,-0.25 -0.719,-0.673 -0.756,-1.801 -0.083,-2.52 0.673,-0.719 1.801,-0.756 2.52,-0.083 l 9.439,7.027 c 0.133,0.1 0.251,0.219 0.351,0.351 0.601,0.792 0.443,1.916 -0.347,2.513 z"
   id="path4"
   style="fill:#ffb144;fill-opacity:1"
   inkscape:export-xdpi="436.6738"
   inkscape:export-ydpi="436.6738"
   inkscape:connector-curvature="0" />







</svg>